<svg width="21" height="21" viewBox="0 0 21 21" fill="none" xmlns="http://www.w3.org/2000/svg">
<path d="M20.2902 4.13643L13.9273 10.5L20.2902 16.8632C21.2366 17.81 21.2366 19.3437 20.2902 20.2905C19.8173 20.7634 19.1973 21 18.5776 21C17.9569 21 17.3368 20.7638 16.8643 20.2905L10.5 13.9265L4.13626 20.2904C3.66342 20.7633 3.04337 21 2.42314 21C1.80308 21 1.18345 20.7637 0.710198 20.2904C-0.23625 19.3441 -0.23625 17.8103 0.710198 16.8631L7.0729 10.4999L0.709836 4.13643C-0.236612 3.18998 -0.236612 1.65592 0.709836 0.709474C1.6561 -0.236247 3.18927 -0.236247 4.13589 0.709474L10.5 7.073L16.8636 0.709474C17.8104 -0.236247 19.3437 -0.236247 20.2898 0.709474C21.2366 1.65592 21.2366 3.18998 20.2902 4.13643Z" fill="black"/>
</svg>
