<svg width="46" height="46" viewBox="0 0 46 46" fill="none" xmlns="http://www.w3.org/2000/svg">
<path d="M23.275 0.00553238C23.2992 0.00553238 23.3029 0.00553238 23.3103 0.00553238C23.3234 0.00553238 23.3234 0.00553238 23.3271 0.00553238C23.3271 0.00553238 23.3271 0.00553238 23.3345 0.00553238C23.3382 0.00553238 23.3494 0.00553238 23.3531 0.00553238C23.3605 0.00553238 23.3605 0.00553238 23.3605 0.00553238C23.3605 0.00553238 23.3605 0.00553238 23.3661 0.00553238C23.4144 -0.00561554 23.4311 0.0018164 23.4664 0.0018164C29.4213 0.0018164 35.2089 2.36332 39.4841 6.51034L44.196 1.73717C44.4226 1.50864 44.7719 1.4399 45.0525 1.56252C45.3479 1.68329 45.543 1.96942 45.543 2.29085V17.8069C45.543 18.2417 45.19 18.5947 44.7589 18.5947H29.438C29.4287 18.5947 29.4138 18.5947 29.4027 18.5947C28.9642 18.5947 28.6149 18.2435 28.6149 17.8069C28.6149 17.5115 28.7728 17.2569 29.0088 17.125L33.6519 12.4187C30.8984 9.7581 27.3013 8.30701 23.3605 8.30701C15.3117 8.34789 8.76046 14.9437 8.76046 23.1152C8.82363 31.1565 15.4121 37.6985 23.5853 37.6985L23.5686 46H23.4571C10.8581 45.9962 0.538878 35.7476 0.458984 22.9981C0.458984 10.4214 10.6835 0.115154 23.275 0.00553238Z" fill="white" fill-opacity="0.5"/>
</svg>
